<svg xmlns="http://www.w3.org/2000/svg" width="500" height="500" style="width:100%;height:100%"><defs><clipPath id="a"><path d="M0 0h500v500H0z"/></clipPath></defs><g clip-path="url(#a)"><path stroke-linecap="round" stroke-linejoin="round" stroke="#A1E4DF" stroke-width="12.985" d="M394.945 264.955c19.993-19.992 30.034-46.213 30.034-72.393 0-26.222-10.041-52.445-30.034-72.436-17.062-17.08-38.65-26.873-60.907-29.376-29.9-3.363-60.994 6.43-83.919 29.376l-.123.122-.126-.122c-19.992-19.993-46.214-30.034-72.394-30.034-26.221 0-52.44 10.041-72.432 30.034-40.03 39.987-40.03 104.842 0 144.83l144.952 144.952 144.95-144.953z" fill="none" display="block"/><path stroke-linecap="round" stroke-linejoin="round" stroke="#A1E4DF" stroke-width="12.0393" d="M213.437 125.973c-11.103-5.62-22.361-9.45-31.379-9.45-20.453 0-40.906 7.831-56.5 23.425-11.176 11.163-18.35 24.813-21.526 39.168" fill="none" display="block"/></g></svg>